<svg xmlns:mydata="http://www.w3.org/2000/svg" mydata:contrastcolor="11111f"
    mydata:template="Contrast" mydata:presentation="2.5" mydata:layouttype="undefined"
    mydata:specialfontid="undefined" mydata:id1="932" mydata:id2="595" mydata:companyname="webmall"
    mydata:companytagline="dz-express" version="1.1" xmlns="http://www.w3.org/2000/svg"
    xmlns:xlink="http://www.w3.org/1999/xlink" viewBox="0 45 550 380">
    <g fill="#ffc72c" fill-rule="none" stroke="none" stroke-width="1" stroke-linecap="butt"
        stroke-linejoin="miter" stroke-miterlimit="10" stroke-dasharray="" stroke-dashoffset="0"
        font-family="none" font-weight="none" font-size="none" text-anchor="none"
        style="mix-blend-mode: normal">
        <g
            data-paper-data="{&quot;isGlobalGroup&quot;:true,&quot;bounds&quot;:{&quot;x&quot;:65,&quot;y&quot;:166.78548622947451,&quot;width&quot;:420,&quot;height&quot;:136.42902754105089}}">
            <g data-paper-data="{&quot;isSecondaryText&quot;:true}" fill-rule="nonzero">
                <path
                    d="M249.44848,276.9362h-4.86119v11.80574h4.86119c3.26394,0 5.90287,-2.63893 5.90287,-5.90287c0,-3.26394 -2.63893,-5.90287 -5.90287,-5.90287zM249.44848,286.65857h-2.77782v-7.63901h2.77782c2.10073,0 3.8195,1.71878 3.8195,3.8195c0,2.11809 -1.71878,3.8195 -3.8195,3.8195z"
                    data-paper-data="{&quot;glyphName&quot;:&quot;D&quot;,&quot;glyphIndex&quot;:0,&quot;firstGlyphOfWord&quot;:true,&quot;word&quot;:1}"></path>
                <path
                    d="M273.17847,286.65857l5.20842,-9.72237h-8.68069l1.04168,2.08337h4.16673l-5.20842,9.72237h8.68069l-1.04168,-2.08337z"
                    data-paper-data="{&quot;glyphName&quot;:&quot;Z&quot;,&quot;glyphIndex&quot;:1,&quot;word&quot;:1}"></path>
                <path d="M296.43365,284.92243v-2.08337h-5.55564v2.08337z"
                    data-paper-data="{&quot;glyphName&quot;:&quot;-&quot;,&quot;glyphIndex&quot;:2,&quot;word&quot;:1}"></path>
                <path
                    d="M312.42256,286.65857v-2.77782h4.51396v-2.08337h-4.51396v-2.77782h4.51396l1.04168,-2.08337h-7.63901v11.80574h7.63901l-1.04168,-2.08337z"
                    data-paper-data="{&quot;glyphName&quot;:&quot;E&quot;,&quot;glyphIndex&quot;:3,&quot;word&quot;:1}"></path>
                <path
                    d="M342.50139,276.9362h-2.44796l-2.41323,3.92367l-2.41323,-3.92367h-2.44796l3.62853,5.90287l-3.62853,5.90287h2.44796l2.41323,-3.92367l2.41323,3.92367h2.44796l-3.64589,-5.90287z"
                    data-paper-data="{&quot;glyphName&quot;:&quot;X&quot;,&quot;glyphIndex&quot;:4,&quot;word&quot;:1}"></path>
                <path
                    d="M362.61101,276.9362h-4.34035v11.80574h2.08337v-3.12505h2.25698c2.39587,0 4.34035,-1.94447 4.34035,-4.34035c0,-2.39587 -1.94447,-4.34035 -4.34035,-4.34035zM362.61101,283.53352h-2.25698v-4.51396h2.25698c1.25002,0 2.25698,1.00696 2.25698,2.25698c0,1.25002 -1.00696,2.25698 -2.25698,2.25698z"
                    data-paper-data="{&quot;glyphName&quot;:&quot;P&quot;,&quot;glyphIndex&quot;:5,&quot;word&quot;:1}"></path>
                <path
                    d="M391.02858,281.27654c0,-2.39587 -1.94447,-4.34035 -4.34035,-4.34035h-4.34035v11.80574h2.08337v-3.12505h1.71878l2.2917,3.12505h2.58685l-2.56948,-3.507c1.51044,-0.67709 2.56948,-2.18753 2.56948,-3.9584zM384.43126,279.01956h2.25698c1.25002,0 2.25698,1.00696 2.25698,2.25698c0,1.25002 -1.00696,2.25698 -2.25698,2.25698h-2.25698z"
                    data-paper-data="{&quot;glyphName&quot;:&quot;R&quot;,&quot;glyphIndex&quot;:6,&quot;word&quot;:1}"></path>
                <path
                    d="M408.4336,286.65857v-2.77782h4.51396v-2.08337h-4.51396v-2.77782h4.51396l1.04168,-2.08337h-7.63901v11.80574h7.63901l-1.04168,-2.08337z"
                    data-paper-data="{&quot;glyphName&quot;:&quot;E&quot;,&quot;glyphIndex&quot;:7,&quot;word&quot;:1}"></path>
                <path
                    d="M431.14576,280.23486c0,-0.69446 0.69446,-1.38891 1.73614,-1.38891c1.56252,0 2.30906,0.93751 2.30906,0.93751l1.85767,-0.93751c0,0 -1.2153,-2.08337 -4.16673,-2.08337c-2.08337,0 -3.8195,1.56252 -3.8195,3.47228c0,4.51396 6.2501,2.43059 6.2501,5.0348c0,0.86807 -0.86807,1.56252 -2.08337,1.56252c-1.73614,0 -2.65629,-1.11113 -2.65629,-1.11113l-1.85767,0.93751c0,0 1.38891,2.25698 4.51396,2.25698c2.08337,0 4.16673,-1.38891 4.16673,-3.64589c0,-4.68757 -6.2501,-2.60421 -6.2501,-5.0348z"
                    data-paper-data="{&quot;glyphName&quot;:&quot;S&quot;,&quot;glyphIndex&quot;:8,&quot;word&quot;:1}"></path>
                <path
                    d="M454.62725,280.23486c0,-0.69446 0.69446,-1.38891 1.73614,-1.38891c1.56252,0 2.30906,0.93751 2.30906,0.93751l1.85767,-0.93751c0,0 -1.2153,-2.08337 -4.16673,-2.08337c-2.08337,0 -3.8195,1.56252 -3.8195,3.47228c0,4.51396 6.2501,2.43059 6.2501,5.0348c0,0.86807 -0.86807,1.56252 -2.08337,1.56252c-1.73614,0 -2.65629,-1.11113 -2.65629,-1.11113l-1.85767,0.93751c0,0 1.38891,2.25698 4.51396,2.25698c2.08337,0 4.16673,-1.38891 4.16673,-3.64589c0,-4.68757 -6.2501,-2.60421 -6.2501,-5.0348z"
                    data-paper-data="{&quot;glyphName&quot;:&quot;S&quot;,&quot;glyphIndex&quot;:9,&quot;lastGlyphOfWord&quot;:true,&quot;word&quot;:1}"></path>
            </g>
            <g data-paper-data="{&quot;isPrimaryText&quot;:true}" fill-rule="nonzero">
                <path
                    d="M276.41117,247.79776l-12.50875,-38.95267l-4.71821,6.14465l-10.42396,32.91775l-11.52121,-34.56364h-8.00999l16.1297,47.51129h1.31671l12.7282,-41.03747l13.82546,41.03747h1.31671l24.90777,-79.77069h-1.97507z"
                    data-paper-data="{&quot;glyphName&quot;:&quot;&quot;,&quot;glyphIndex&quot;:0,&quot;firstGlyphOfWord&quot;:true,&quot;word&quot;:1}"
                    fill="#000000"></path>
                <path
                    d="M322.93493,246.37133c-1.42644,2.52369 -4.16958,4.16958 -6.3641,5.81547c-2.19452,1.75561 -4.60849,2.52369 -7.24191,2.52369c-4.38903,0 -11.74067,-0.4389 -11.96012,-11.52121l25.23694,-6.14465c-0.21945,-8.66834 -5.70574,-15.25189 -14.70326,-15.25189c-11.41149,0 -17.00751,9.7656 -17.00751,20.40901c0,9.3267 5.70574,18.76312 15.91025,18.76312c8.44889,0 14.70326,-6.47382 17.44641,-14.04491zM306.14688,224.64561c5.70574,0 7.57108,4.71821 8.00999,9.65587l-16.5686,6.14465c-0.32918,-6.69328 3.29178,-15.80052 8.55862,-15.80052z"
                    data-paper-data="{&quot;glyphName&quot;:&quot;e&quot;,&quot;glyphIndex&quot;:1,&quot;word&quot;:1}"
                    fill="#000000"></path>
                <path
                    d="M363.9724,240.44613c0,-8.33916 -4.38903,-17.99504 -13.93518,-17.99504c-4.16958,0 -8.00999,2.41397 -11.52121,7.35163v-26.55365h-1.86534l-4.71821,1.97507v55.96018h6.58355v-1.09726h0.10973c2.19452,0.76808 4.38903,1.20698 6.47382,1.20698c4.60849,0 8.77807,-1.75561 12.39902,-5.15711c4.38903,-3.95013 6.47382,-9.21697 6.47382,-15.6908zM353.98734,254.38131c-2.9626,3.73068 -5.37657,4.05986 -9.65587,4.05986c-1.86534,0 -4.05986,-0.32918 -5.81547,-2.08479v-23.92023c1.64589,-1.64589 2.9626,-2.74315 4.05986,-3.18205c1.42644,-0.76808 2.85287,-1.09726 4.27931,-1.09726c7.57108,0 10.2045,8.33916 10.2045,14.59354c0,5.04739 -0.98753,8.99752 -3.07232,11.63094z"
                    data-paper-data="{&quot;glyphName&quot;:&quot;b&quot;,&quot;glyphIndex&quot;:2,&quot;word&quot;:1}"
                    fill="#000000"></path>
                <path
                    d="M422.67572,238.58079c0,-5.04739 -0.65836,-8.99752 -1.97507,-11.85039c-1.31671,-2.85287 -4.27931,-4.27931 -8.77807,-4.27931c-4.82794,0 -9.98505,3.62095 -13.05738,7.13218c-1.09726,-4.27931 -4.27931,-7.13218 -8.77807,-7.13218c-3.18205,0 -6.58355,1.31671 -10.2045,3.95013l-0.98753,0.98753c-0.32918,0.4389 -0.65836,0.76808 -1.53616,1.31671c-0.32918,0 -0.4389,-0.21945 -0.4389,-0.76808v-5.48629l-7.02245,2.52369v36.20953h7.02245v-29.2968c1.09726,-1.42644 2.52369,-2.63342 4.38903,-3.51123c1.75561,-0.98753 3.62095,-1.42644 5.48629,-1.42644c2.52369,0 4.05986,0.87781 4.71821,2.63342c0.65836,1.75561 0.98753,3.95013 1.09726,6.69328v24.90777h7.13218v-29.07735c2.30424,-3.51123 5.37657,-5.15711 9.10724,-5.15711c6.69328,0 6.69328,4.71821 6.69328,10.2045v24.02996h7.24191z"
                    data-paper-data="{&quot;glyphName&quot;:&quot;m&quot;,&quot;glyphIndex&quot;:3,&quot;word&quot;:1}"
                    fill="#000000"></path>
                <path
                    d="M453.83786,224.09698c-1.75561,-1.97507 -4.71821,-2.9626 -9.21697,-2.9626c-5.37657,0 -13.49628,2.30424 -13.49628,8.99752c0,2.19452 1.09726,3.29178 3.51123,3.29178c0.87781,0 1.75561,-0.32918 2.41397,-1.09726c0.76808,-0.65836 1.09726,-1.53616 1.09726,-2.41397v-1.75561c-0.10973,-0.76808 -0.10973,-1.20698 -0.10973,-1.53616c0,-0.76808 0.10973,-1.31671 0.21945,-1.53616c0.4389,-0.65836 1.09726,-1.20698 2.19452,-1.64589c1.09726,-0.32918 2.08479,-0.54863 3.07232,-0.54863c2.41397,0 4.05986,0.87781 4.82794,2.52369c0.76808,1.64589 1.09726,6.69328 1.09726,11.19204c-4.38903,1.64589 -8.77807,3.29178 -12.94765,5.48629c-3.8404,2.30424 -7.02245,5.48629 -7.02245,10.31423c0,4.71821 3.8404,8.55862 8.55862,8.55862c3.4015,0 7.24191,-2.08479 11.74067,-6.25437c0,0.54863 0,1.53616 0.10973,1.97507l6.3641,-0.21945v-21.61599c0,-5.15711 -0.76808,-8.66834 -2.41397,-10.75313zM449.44883,252.6257c-0.98753,1.64589 -5.26684,3.62095 -7.13218,3.62095c-1.86534,0 -3.18205,-0.65836 -4.27931,-1.86534c-0.98753,-1.31671 -1.42644,-2.85287 -1.42644,-4.82794c0,-5.04739 3.73068,-7.57108 8.11971,-8.99752c1.42644,-0.54863 2.9626,-1.09726 4.71821,-1.75561z"
                    data-paper-data="{&quot;glyphName&quot;:&quot;a&quot;,&quot;glyphIndex&quot;:4,&quot;word&quot;:1}"
                    fill="#000000"></path>
                <path
                    d="M463.05483,261.07459h7.13218v-57.71579c-2.41397,0.87781 -4.82794,1.64589 -7.13218,2.19452z"
                    data-paper-data="{&quot;glyphName&quot;:&quot;l&quot;,&quot;glyphIndex&quot;:5,&quot;word&quot;:1}"
                    fill="#000000"></path>
                <path
                    d="M477.86782,261.07459h7.13218v-57.71579c-2.41397,0.87781 -4.82794,1.64589 -7.13218,2.19452z"
                    data-paper-data="{&quot;glyphName&quot;:&quot;l&quot;,&quot;glyphIndex&quot;:6,&quot;lastGlyphOfWord&quot;:true,&quot;word&quot;:1}"
                    fill="#000000"></path>
            </g>
            <g
                data-paper-data="{&quot;fillRule&quot;:&quot;evenodd&quot;,&quot;fillRuleOriginal&quot;:&quot;evenodd&quot;,&quot;isIcon&quot;:true,&quot;iconStyle&quot;:&quot;standalone&quot;,&quot;selectedEffects&quot;:{&quot;container&quot;:&quot;&quot;,&quot;transformation&quot;:&quot;&quot;,&quot;pattern&quot;:&quot;&quot;},&quot;bounds&quot;:{&quot;x&quot;:65,&quot;y&quot;:166.78548622947451,&quot;width&quot;:136.58588246651578,&quot;height&quot;:136.42902754105089},&quot;iconType&quot;:&quot;icon&quot;,&quot;rawIconId&quot;:&quot;4033925&quot;,&quot;isDetailed&quot;:false,&quot;suitableAsStandaloneIcon&quot;:true}"
                fill-rule="evenodd">
                <path
                    d="M181.68421,186.70978c-11.89606,-11.90241 -27.76567,-18.99693 -44.56807,-19.92429h-0.09097c-1.58583,0.02371 -2.88465,1.28728 -2.94145,2.88294c-0.09759,1.68361 1.17902,3.13168 2.86158,3.24597c33.52749,1.94167 59.47563,30.12007 58.6524,63.69368c-0.82303,33.57362 -28.12102,60.44643 -61.70361,60.74263c-33.58237,0.29619 -61.34999,-26.091 -62.76517,-59.64498c-0.10304,-1.68001 -1.52084,-2.97498 -3.20327,-2.92565c-0.81383,0.03182 -1.58185,0.38504 -2.13551,0.98233c-0.4399,0.48604 -0.71431,1.09509 -0.79014,1.73959v0.8448c1.54112,30.31355 22.90632,56.00244 52.47415,63.01673c29.7139,7.0491 60.49768,-6.4723 75.40952,-33.1226c14.91162,-26.6503 10.33116,-59.95932 -11.22082,-81.59523zM133.33629,292.13986c30.9053,0.19027 56.34433,-24.25917 57.37985,-55.14781c1.03572,-30.88843 -22.70879,-56.98678 -53.55728,-58.86701c-1.68662,-0.06488 -3.10631,1.24976 -3.17123,2.93632c-0.06492,1.68656 1.2497,3.10635 2.93632,3.17123c22.55247,1.60838 41.34793,17.88617 46.16074,39.97779c4.81301,22.09163 -5.50769,44.71265 -25.34742,55.55676c-19.83952,10.8439 -44.45233,7.31711 -60.44836,-8.66205c-1.1914,-1.14997 -3.07962,-1.14997 -4.27102,0c-1.12819,1.20015 -1.12819,3.07086 0,4.27102c10.66794,10.73841 25.1817,16.77293 40.31841,16.76375zM172.99504,236.41973c0.71262,-20.97689 -15.02651,-38.88399 -35.92161,-40.86894l-0.32033,-0.08542c-1.6027,-0.09183 -2.83703,-1.44959 -2.77616,-3.05378c0.10977,-1.62918 1.44275,-2.90664 3.07514,-2.947h0.55524c23.92624,2.50346 41.83932,23.0887 41.01287,47.13132c-0.82623,24.04284 -20.1103,43.34955 -44.15208,44.2044c-1.66655,0.02392 -3.04011,-1.30202 -3.07514,-2.96836c-0.00064,-1.66548 1.32487,-3.02879 2.98971,-3.07514c20.98159,-0.56249 37.89973,-17.35998 38.61235,-38.33708zM153.81582,255.55859c8.29474,-8.28535 10.78005,-20.75224 6.29655,-31.58482c-4.4835,-10.8328 -15.05213,-17.89685 -26.77608,-17.89685c-11.72394,0 -22.29258,7.06405 -26.77608,17.89685c-4.4835,10.83259 -1.9982,23.29947 6.29655,31.58482c11.32396,11.27805 29.6351,11.27805 40.95906,0z"
                    data-paper-data="{&quot;isPathIcon&quot;:true}"></path>
            </g>
        </g>
    </g>
</svg>